<svg width="800" height="400" viewBox="0 0 800 400" fill="none" xmlns="http://www.w3.org/2000/svg">
<g clip-path="url(#clip0_1100_5398)">
<g>
<rect width="10" height="10" transform="matrix(1 0 0 -1 0 400)" fill="#CBD2DA" stroke="#5A6675"/>
<rect width="10" height="10" transform="matrix(1 0 0 -1 90 400)" fill="#CBD2DA" stroke="#5A6675"/>
<rect width="800" height="10" transform="matrix(1 0 0 -1 0 390)" fill="#CBD2DA" stroke="#5A6675"/>
<g>
<rect width="10" height="90" transform="matrix(1 0 0 -1 0 100)" fill="#CBD2DA" stroke="#5A6675"/>
<rect width="10" height="90" transform="matrix(1 0 0 -1 0 200)" fill="#CBD2DA" stroke="#5A6675"/>
<rect width="10" height="90" transform="matrix(1 0 0 -1 90 100)" fill="#CBD2DA" stroke="#5A6675"/>
<rect width="10" height="90" transform="matrix(1 0 0 -1 90 200)" fill="#CBD2DA" stroke="#5A6675"/>
<rect width="100" height="10" transform="matrix(1 0 0 -1 0 210)" fill="#CBD2DA" stroke="#5A6675"/>
<rect width="100" height="10" transform="matrix(1 0 0 -1 0 110)" fill="#CBD2DA" stroke="#5A6675"/>
<rect width="100" height="10" transform="matrix(1 0 0 -1 0 10)" fill="#CBD2DA" stroke="#5A6675"/>
<rect width="80" height="90" transform="matrix(1 0 0 -1 10 100)" fill="#FFF5CC" stroke="#5A6675"/>
<rect width="80" height="90" transform="matrix(1 0 0 -1 10 200)" fill="#FFF5CC" stroke="#5A6675"/>
</g>
<g>
<rect width="10" height="90" transform="matrix(1 0 0 -1 100 100)" fill="#CBD2DA" stroke="#5A6675"/>
<rect width="10" height="90" transform="matrix(1 0 0 -1 100 200)" fill="#CBD2DA" stroke="#5A6675"/>
<rect width="10" height="90" transform="matrix(1 0 0 -1 190 100)" fill="#CBD2DA" stroke="#5A6675"/>
<rect width="10" height="90" transform="matrix(1 0 0 -1 190 200)" fill="#CBD2DA" stroke="#5A6675"/>
<rect width="100" height="10" transform="matrix(1 0 0 -1 100 210)" fill="#CBD2DA" stroke="#5A6675"/>
<rect width="100" height="10" transform="matrix(1 0 0 -1 100 110)" fill="#CBD2DA" stroke="#5A6675"/>
<rect width="100" height="10" transform="matrix(1 0 0 -1 100 10)" fill="#CBD2DA" stroke="#5A6675"/>
<rect width="80" height="90" transform="matrix(1 0 0 -1 110 100)" fill="#FFF5CC" stroke="#5A6675"/>
<rect width="80" height="90" transform="matrix(1 0 0 -1 110 200)" fill="#FFF5CC" stroke="#5A6675"/>
</g>
<g>
<rect width="10" height="90" transform="matrix(1 0 0 -1 200 100)" fill="#CBD2DA" stroke="#5A6675"/>
<rect width="10" height="90" transform="matrix(1 0 0 -1 200 200)" fill="#CBD2DA" stroke="#5A6675"/>
<rect width="10" height="90" transform="matrix(1 0 0 -1 290 100)" fill="#CBD2DA" stroke="#5A6675"/>
<rect width="10" height="90" transform="matrix(1 0 0 -1 290 200)" fill="#CBD2DA" stroke="#5A6675"/>
<rect width="100" height="10" transform="matrix(1 0 0 -1 200 210)" fill="#CBD2DA" stroke="#5A6675"/>
<rect width="100" height="10" transform="matrix(1 0 0 -1 200 110)" fill="#CBD2DA" stroke="#5A6675"/>
<rect width="100" height="10" transform="matrix(1 0 0 -1 200 10)" fill="#CBD2DA" stroke="#5A6675"/>
<rect width="80" height="90" transform="matrix(1 0 0 -1 210 100)" fill="#FFF5CC" stroke="#5A6675"/>
<rect width="80" height="90" transform="matrix(1 0 0 -1 210 200)" fill="#FFF5CC" stroke="#5A6675"/>
</g>
<g>
<rect width="10" height="90" transform="matrix(1 0 0 -1 300 100)" fill="#CBD2DA" stroke="#5A6675"/>
<rect width="10" height="90" transform="matrix(1 0 0 -1 300 200)" fill="#CBD2DA" stroke="#5A6675"/>
<rect width="10" height="90" transform="matrix(1 0 0 -1 390 100)" fill="#CBD2DA" stroke="#5A6675"/>
<rect width="10" height="90" transform="matrix(1 0 0 -1 390 200)" fill="#CBD2DA" stroke="#5A6675"/>
<rect width="100" height="10" transform="matrix(1 0 0 -1 300 210)" fill="#CBD2DA" stroke="#5A6675"/>
<rect width="100" height="10" transform="matrix(1 0 0 -1 300 110)" fill="#CBD2DA" stroke="#5A6675"/>
<rect width="100" height="10" transform="matrix(1 0 0 -1 300 10)" fill="#CBD2DA" stroke="#5A6675"/>
<rect width="80" height="90" transform="matrix(1 0 0 -1 310 100)" fill="#FFF5CC" stroke="#5A6675"/>
<rect width="80" height="90" transform="matrix(1 0 0 -1 310 200)" fill="#FFF5CC" stroke="#5A6675"/>
</g>
<g>
<rect width="10" height="90" transform="matrix(1 0 0 -1 400 100)" fill="#CBD2DA" stroke="#5A6675"/>
<rect width="10" height="90" transform="matrix(1 0 0 -1 400 200)" fill="#CBD2DA" stroke="#5A6675"/>
<rect width="10" height="90" transform="matrix(1 0 0 -1 490 100)" fill="#CBD2DA" stroke="#5A6675"/>
<rect width="10" height="90" transform="matrix(1 0 0 -1 490 200)" fill="#CBD2DA" stroke="#5A6675"/>
<rect width="100" height="10" transform="matrix(1 0 0 -1 400 210)" fill="#CBD2DA" stroke="#5A6675"/>
<rect width="100" height="10" transform="matrix(1 0 0 -1 400 110)" fill="#CBD2DA" stroke="#5A6675"/>
<rect width="100" height="10" transform="matrix(1 0 0 -1 400 10)" fill="#CBD2DA" stroke="#5A6675"/>
<rect width="80" height="90" transform="matrix(1 0 0 -1 410 100)" fill="#FFF5CC" stroke="#5A6675"/>
<rect width="80" height="90" transform="matrix(1 0 0 -1 410 200)" fill="#FFF5CC" stroke="#5A6675"/>
</g>
<g>
<rect width="10" height="90" transform="matrix(1 0 0 -1 500 100)" fill="#CBD2DA" stroke="#5A6675"/>
<rect width="10" height="90" transform="matrix(1 0 0 -1 500 200)" fill="#CBD2DA" stroke="#5A6675"/>
<rect width="10" height="90" transform="matrix(1 0 0 -1 590 100)" fill="#CBD2DA" stroke="#5A6675"/>
<rect width="10" height="90" transform="matrix(1 0 0 -1 590 200)" fill="#CBD2DA" stroke="#5A6675"/>
<rect width="100" height="10" transform="matrix(1 0 0 -1 500 210)" fill="#CBD2DA" stroke="#5A6675"/>
<rect width="100" height="10" transform="matrix(1 0 0 -1 500 110)" fill="#CBD2DA" stroke="#5A6675"/>
<rect width="100" height="10" transform="matrix(1 0 0 -1 500 10)" fill="#CBD2DA" stroke="#5A6675"/>
<rect width="80" height="90" transform="matrix(1 0 0 -1 510 100)" fill="#FFF5CC" stroke="#5A6675"/>
<rect width="80" height="90" transform="matrix(1 0 0 -1 510 200)" fill="#FFF5CC" stroke="#5A6675"/>
</g>
<g>
<rect width="10" height="90" transform="matrix(1 0 0 -1 600 100)" fill="#CBD2DA" stroke="#5A6675"/>
<rect width="10" height="90" transform="matrix(1 0 0 -1 600 200)" fill="#CBD2DA" stroke="#5A6675"/>
<rect width="10" height="90" transform="matrix(1 0 0 -1 690 100)" fill="#CBD2DA" stroke="#5A6675"/>
<rect width="10" height="90" transform="matrix(1 0 0 -1 690 200)" fill="#CBD2DA" stroke="#5A6675"/>
<rect width="100" height="10" transform="matrix(1 0 0 -1 600 210)" fill="#CBD2DA" stroke="#5A6675"/>
<rect width="100" height="10" transform="matrix(1 0 0 -1 600 110)" fill="#CBD2DA" stroke="#5A6675"/>
<rect width="100" height="10" transform="matrix(1 0 0 -1 600 10)" fill="#CBD2DA" stroke="#5A6675"/>
<rect width="80" height="90" transform="matrix(1 0 0 -1 610 100)" fill="#FFF5CC" stroke="#5A6675"/>
<rect width="80" height="90" transform="matrix(1 0 0 -1 610 200)" fill="#FFF5CC" stroke="#5A6675"/>
</g>
<g>
<rect width="10" height="90" transform="matrix(1 0 0 -1 700 100)" fill="#CBD2DA" stroke="#5A6675"/>
<rect width="10" height="90" transform="matrix(1 0 0 -1 700 200)" fill="#CBD2DA" stroke="#5A6675"/>
<rect width="10" height="90" transform="matrix(1 0 0 -1 790 100)" fill="#CBD2DA" stroke="#5A6675"/>
<rect width="10" height="90" transform="matrix(1 0 0 -1 790 200)" fill="#CBD2DA" stroke="#5A6675"/>
<rect width="100" height="10" transform="matrix(1 0 0 -1 700 210)" fill="#CBD2DA" stroke="#5A6675"/>
<rect width="100" height="10" transform="matrix(1 0 0 -1 700 110)" fill="#CBD2DA" stroke="#5A6675"/>
<rect width="100" height="10" transform="matrix(1 0 0 -1 700 10)" fill="#CBD2DA" stroke="#5A6675"/>
<rect width="80" height="90" transform="matrix(1 0 0 -1 710 100)" fill="#FFF5CC" stroke="#5A6675"/>
<rect width="80" height="90" transform="matrix(1 0 0 -1 710 200)" fill="#FFF5CC" stroke="#5A6675"/>
</g>
<rect width="10" height="70" transform="matrix(1 0 0 -1 0 380)" fill="#CBD2DA" stroke="#5A6675"/>
<rect width="10" height="90" transform="matrix(1 0 0 -1 0 300)" fill="#CBD2DA" stroke="#5A6675"/>
<rect width="10" height="70" transform="matrix(1 0 0 -1 90 380)" fill="#CBD2DA" stroke="#5A6675"/>
<rect width="10" height="90" transform="matrix(1 0 0 -1 90 300)" fill="#CBD2DA" stroke="#5A6675"/>
<rect width="100" height="10" transform="matrix(1 0 0 -1 0 310)" fill="#CBD2DA" stroke="#5A6675"/>
<rect width="80" height="90" transform="matrix(1 0 0 -1 10 300)" fill="#FFF5CC" stroke="#5A6675"/>
<rect width="80" height="70" transform="matrix(1 0 0 -1 10 380)" fill="#CBD2DA" stroke="#5A6675"/>
<rect x="40" y="320" width="20" height="10" fill="#5A6675" stroke="#5A6675"/>
<g>
<rect width="10" height="70" transform="matrix(1 0 0 -1 100 380)" fill="#CBD2DA" stroke="#5A6675"/>
<rect width="10" height="90" transform="matrix(1 0 0 -1 100 300)" fill="#CBD2DA" stroke="#5A6675"/>
<rect width="10" height="90" transform="matrix(1 0 0 -1 190 300)" fill="#CBD2DA" stroke="#5A6675"/>
<rect width="10" height="70" transform="matrix(1 0 0 -1 190 380)" fill="#CBD2DA" stroke="#5A6675"/>
<rect width="100" height="10" transform="matrix(1 0 0 -1 100 310)" fill="#CBD2DA" stroke="#5A6675"/>
<rect width="40" height="70" transform="matrix(1 0 0 -1 110 380)" fill="#CBD2DA" stroke="#5A6675"/>
<rect width="40" height="70" transform="matrix(1 0 0 -1 150 380)" fill="#CBD2DA" stroke="#5A6675"/>
<rect x="120" y="320" width="20" height="10" fill="#5A6675" stroke="#5A6675"/>
<rect x="110" y="290" width="10" height="10" fill="#5A6675" stroke="#5A6675"/>
<rect x="180" y="290" width="10" height="10" fill="#5A6675" stroke="#5A6675"/>
<rect x="120" y="290" width="60" height="10" fill="#E4E8ED" stroke="#5A6675"/>
<rect x="160" y="320" width="20" height="10" fill="#5A6675" stroke="#5A6675"/>
</g>
<g>
<rect width="10" height="70" transform="matrix(1 0 0 -1 200 380)" fill="#CBD2DA" stroke="#5A6675"/>
<rect width="10" height="90" transform="matrix(1 0 0 -1 200 300)" fill="#CBD2DA" stroke="#5A6675"/>
<rect width="10" height="90" transform="matrix(1 0 0 -1 290 300)" fill="#CBD2DA" stroke="#5A6675"/>
<rect width="10" height="70" transform="matrix(1 0 0 -1 290 380)" fill="#CBD2DA" stroke="#5A6675"/>
<rect width="100" height="10" transform="matrix(1 0 0 -1 200 310)" fill="#CBD2DA" stroke="#5A6675"/>
<rect width="40" height="70" transform="matrix(1 0 0 -1 210 380)" fill="#CBD2DA" stroke="#5A6675"/>
<rect width="40" height="70" transform="matrix(1 0 0 -1 250 380)" fill="#CBD2DA" stroke="#5A6675"/>
<rect x="220" y="320" width="20" height="10" fill="#5A6675" stroke="#5A6675"/>
<rect x="210" y="290" width="10" height="10" fill="#5A6675" stroke="#5A6675"/>
<rect x="280" y="290" width="10" height="10" fill="#5A6675" stroke="#5A6675"/>
<rect x="220" y="290" width="60" height="10" fill="#E4E8ED" stroke="#5A6675"/>
<rect x="260" y="320" width="20" height="10" fill="#5A6675" stroke="#5A6675"/>
</g>
<g>
<rect width="10" height="70" transform="matrix(1 0 0 -1 300 380)" fill="#CBD2DA" stroke="#5A6675"/>
<rect width="10" height="90" transform="matrix(1 0 0 -1 300 300)" fill="#CBD2DA" stroke="#5A6675"/>
<rect width="10" height="90" transform="matrix(1 0 0 -1 390 300)" fill="#CBD2DA" stroke="#5A6675"/>
<rect width="10" height="70" transform="matrix(1 0 0 -1 390 380)" fill="#CBD2DA" stroke="#5A6675"/>
<rect width="100" height="10" transform="matrix(1 0 0 -1 300 310)" fill="#CBD2DA" stroke="#5A6675"/>
<rect width="40" height="70" transform="matrix(1 0 0 -1 310 380)" fill="#CBD2DA" stroke="#5A6675"/>
<rect width="40" height="70" transform="matrix(1 0 0 -1 350 380)" fill="#CBD2DA" stroke="#5A6675"/>
<rect x="320" y="320" width="20" height="10" fill="#5A6675" stroke="#5A6675"/>
<rect x="310" y="290" width="10" height="10" fill="#5A6675" stroke="#5A6675"/>
<rect x="380" y="290" width="10" height="10" fill="#5A6675" stroke="#5A6675"/>
<rect x="320" y="290" width="60" height="10" fill="#E4E8ED" stroke="#5A6675"/>
<rect x="360" y="320" width="20" height="10" fill="#5A6675" stroke="#5A6675"/>
</g>
<g>
<rect width="10" height="70" transform="matrix(1 0 0 -1 400 380)" fill="#CBD2DA" stroke="#5A6675"/>
<rect width="10" height="90" transform="matrix(1 0 0 -1 400 300)" fill="#CBD2DA" stroke="#5A6675"/>
<rect width="10" height="90" transform="matrix(1 0 0 -1 490 300)" fill="#CBD2DA" stroke="#5A6675"/>
<rect width="10" height="70" transform="matrix(1 0 0 -1 490 380)" fill="#CBD2DA" stroke="#5A6675"/>
<rect width="100" height="10" transform="matrix(1 0 0 -1 400 310)" fill="#CBD2DA" stroke="#5A6675"/>
<rect width="40" height="70" transform="matrix(1 0 0 -1 410 380)" fill="#CBD2DA" stroke="#5A6675"/>
<rect width="40" height="70" transform="matrix(1 0 0 -1 450 380)" fill="#CBD2DA" stroke="#5A6675"/>
<rect x="420" y="320" width="20" height="10" fill="#5A6675" stroke="#5A6675"/>
<rect x="410" y="290" width="10" height="10" fill="#5A6675" stroke="#5A6675"/>
<rect x="480" y="290" width="10" height="10" fill="#5A6675" stroke="#5A6675"/>
<rect x="420" y="290" width="60" height="10" fill="#E4E8ED" stroke="#5A6675"/>
<rect x="460" y="320" width="20" height="10" fill="#5A6675" stroke="#5A6675"/>
</g>
<g>
<rect width="10" height="70" transform="matrix(1 0 0 -1 500 380)" fill="#CBD2DA" stroke="#5A6675"/>
<rect width="10" height="90" transform="matrix(1 0 0 -1 500 300)" fill="#CBD2DA" stroke="#5A6675"/>
<rect width="10" height="90" transform="matrix(1 0 0 -1 590 300)" fill="#CBD2DA" stroke="#5A6675"/>
<rect width="10" height="70" transform="matrix(1 0 0 -1 590 380)" fill="#CBD2DA" stroke="#5A6675"/>
<rect width="100" height="10" transform="matrix(1 0 0 -1 500 310)" fill="#CBD2DA" stroke="#5A6675"/>
<rect width="40" height="70" transform="matrix(1 0 0 -1 510 380)" fill="#CBD2DA" stroke="#5A6675"/>
<rect width="40" height="70" transform="matrix(1 0 0 -1 550 380)" fill="#CBD2DA" stroke="#5A6675"/>
<rect x="520" y="320" width="20" height="10" fill="#5A6675" stroke="#5A6675"/>
<rect x="510" y="290" width="10" height="10" fill="#5A6675" stroke="#5A6675"/>
<rect x="580" y="290" width="10" height="10" fill="#5A6675" stroke="#5A6675"/>
<rect x="520" y="290" width="60" height="10" fill="#E4E8ED" stroke="#5A6675"/>
<rect x="560" y="320" width="20" height="10" fill="#5A6675" stroke="#5A6675"/>
</g>
<g>
<rect width="10" height="70" transform="matrix(1 0 0 -1 600 380)" fill="#CBD2DA" stroke="#5A6675"/>
<rect width="10" height="90" transform="matrix(1 0 0 -1 600 300)" fill="#CBD2DA" stroke="#5A6675"/>
<rect width="10" height="90" transform="matrix(1 0 0 -1 690 300)" fill="#CBD2DA" stroke="#5A6675"/>
<rect width="10" height="70" transform="matrix(1 0 0 -1 690 380)" fill="#CBD2DA" stroke="#5A6675"/>
<rect width="100" height="10" transform="matrix(1 0 0 -1 600 310)" fill="#CBD2DA" stroke="#5A6675"/>
<rect width="40" height="70" transform="matrix(1 0 0 -1 610 380)" fill="#CBD2DA" stroke="#5A6675"/>
<rect width="40" height="70" transform="matrix(1 0 0 -1 650 380)" fill="#CBD2DA" stroke="#5A6675"/>
<rect x="620" y="320" width="20" height="10" fill="#5A6675" stroke="#5A6675"/>
<rect x="610" y="290" width="10" height="10" fill="#5A6675" stroke="#5A6675"/>
<rect x="680" y="290" width="10" height="10" fill="#5A6675" stroke="#5A6675"/>
<rect x="620" y="290" width="60" height="10" fill="#E4E8ED" stroke="#5A6675"/>
<rect x="660" y="320" width="20" height="10" fill="#5A6675" stroke="#5A6675"/>
</g>
<g>
<rect width="10" height="70" transform="matrix(1 0 0 -1 700 380)" fill="#CBD2DA" stroke="#5A6675"/>
<rect width="10" height="90" transform="matrix(1 0 0 -1 700 300)" fill="#CBD2DA" stroke="#5A6675"/>
<rect width="10" height="70" transform="matrix(1 0 0 -1 790 380)" fill="#CBD2DA" stroke="#5A6675"/>
<rect width="10" height="90" transform="matrix(1 0 0 -1 790 300)" fill="#CBD2DA" stroke="#5A6675"/>
<rect width="100" height="10" transform="matrix(1 0 0 -1 700 310)" fill="#CBD2DA" stroke="#5A6675"/>
<rect width="80" height="90" transform="matrix(1 0 0 -1 710 300)" fill="#FFF5CC" stroke="#5A6675"/>
<rect width="80" height="70" transform="matrix(1 0 0 -1 710 380)" fill="#CBD2DA" stroke="#5A6675"/>
<rect x="740" y="320" width="20" height="10" fill="#5A6675" stroke="#5A6675"/>
</g>
</g>
</g>
<defs>
<clipPath id="clip0_1100_5398">
<rect width="800" height="400" fill="white"/>
</clipPath>
</defs>
</svg>
