<svg xmlns="http://www.w3.org/2000/svg" width="24" height="24" viewBox="0 0 24 24" fill="none">
<path d="M14 7.2 A2 2 0 1 1 10 7.2 A2 2 0 1 1 14 7.2 Z" stroke="currentColor" stroke-width="1" stroke-linecap="round" stroke-linejoin="round" fill="none"/>
<path d="M8.6 14.2 C8.6 12.1 10 10.8 12 10.8 C14 10.8 15.4 12.1 15.4 14.2" stroke="currentColor" stroke-width="1" stroke-linecap="round" stroke-linejoin="round" fill="none"/>
<path d="M7.2 10.6 A1.7 1.7 0 1 1 3.8 10.6 A1.7 1.7 0 1 1 7.2 10.6 Z" stroke="currentColor" stroke-width="1" stroke-linecap="round" stroke-linejoin="round" fill="none"/>
<path d="M2.5 17 C2.5 15.2 3.7 14 5.5 14 C6.1 14 6.6 14.1 7 14.3" stroke="currentColor" stroke-width="1" stroke-linecap="round" stroke-linejoin="round" fill="none"/>
<path d="M20.2 10.6 A1.7 1.7 0 1 1 16.8 10.6 A1.7 1.7 0 1 1 20.2 10.6 Z" stroke="currentColor" stroke-width="1" stroke-linecap="round" stroke-linejoin="round" fill="none"/>
<path d="M21.5 17 C21.5 15.2 20.3 14 18.5 14 C17.9 14 17.4 14.1 17 14.3" stroke="currentColor" stroke-width="1" stroke-linecap="round" stroke-linejoin="round" fill="none"/>
</svg>
