<svg width="484" height="103" viewBox="0 0 484 103" fill="none" xmlns="http://www.w3.org/2000/svg">
<path d="M373.887 79.2944L332.137 60.8892H346.169C360.935 60.8892 372.96 48.8636 372.96 34.098V27.3586C372.96 12.4131 360.935 0.373638 346.169 0.373638H290.386V21.6987H342.516C347.622 21.6987 351.635 25.7119 351.635 30.6245C351.635 35.5372 347.622 39.5503 342.516 39.5503H314.631C301.139 39.5503 290.386 50.4827 290.386 63.9752V100.799H311.531V75.1013L373.694 102.446L373.874 79.2944H373.887ZM445.155 79.4743H417.077C408.691 79.4743 401.758 66.5353 401.758 50.4827C401.758 34.4301 408.691 21.6849 417.077 21.6849H445.155C453.721 21.6849 460.475 34.4439 460.475 50.4827C460.475 66.5215 453.735 79.4743 445.155 79.4743ZM449.542 0.3598H412.898C393.759 0.3598 378.44 22.958 378.44 50.4965C378.44 78.0351 393.759 100.813 412.898 100.813H449.542C468.501 100.813 484 78.215 484 50.4965C484 22.7781 468.501 0.3598 449.542 0.3598ZM51.23 22.4183C52.3232 22.4183 53.0566 22.9718 53.4164 24.0651L78.7547 100.813H102.64L73.6483 12.5792C72.0015 5.46619 62.7159 0 51.23 0C39.744 0 30.6245 5.46619 28.9916 12.5792L0 100.813H23.8852L49.2234 24.0651C49.4033 22.9718 50.3166 22.4183 51.23 22.4183ZM197.973 0.3598V21.6849H250.296C255.403 21.6849 259.416 25.698 259.416 30.6107C259.416 35.5233 255.403 39.5365 250.296 39.5365H222.592C208.919 39.5365 197.987 50.4689 197.987 63.9613V100.785H219.312V73.8005C219.312 66.6875 225.152 60.8615 232.071 60.8615H253.77C268.535 60.8615 280.561 48.8359 280.561 34.0703V27.331C280.561 12.3854 268.535 0.345961 253.77 0.345961H197.987L197.973 0.3598ZM179.928 59.2424H108.646V37.9174H179.928V59.2424Z" fill="white"/>
</svg>
